Encoder ..........: DarthMidal                                                    
Video Codec.......: XviD
Video Bitrate.....: 1 866 Kbps
Audio Codec.......: AC-3
Audio Bitrate.....: 128 kbps                           
Resolution........: 720X384
Runtime...........: 1h 45mn
Release Date......: 08/09/12
DVD Release Date..: 25 May 2012 (UK)
Language..........: English
Subtitles.........: N/A
IMDB Rating.......: 7.2
IMDB URL..........: http://www.imdb.com/title/tt1409024/


General
Complete name                            : E:Men.in.Black.3.2012.BRRip.XviD.AC3.CrEwSaDeMen.in.Black.3.2012.BRRip.XviD.AC3.CrEwSaDe.avi
Format                                   : AVI
Format/Info                              : Audio Video Interleave
File size                                : 1.48 GiB
Duration                                 : 1h 45mn
Overall bit rate                         : 2 001 Kbps

Video
ID                                       : 0
Format                                   : MPEG-4 Visual
Format profile                           : Advanced Simple@L5
Format settings, BVOP                    : 2
Format settings, QPel                    : No
Format settings, GMC                     : No warppoints
Format settings, Matrix                  : Default (H.263)
Codec ID                                 : XVID
Codec ID/Hint                            : XviD
Duration                                 : 1h 45mn
Bit rate                                 : 1 866 Kbps
Width                                    : 720 pixels
Height                                   : 384 pixels
Display aspect ratio                     : 1.875
Frame rate                               : 23.976 fps
Color space                              : YUV
Chroma subsampling                       : 4:2:0
Bit depth                                : 8 bits
Scan type                                : Progressive
Compression mode                         : Lossy
Bits/(Pixel*Frame)                       : 0.281
Stream size                              : 1.38 GiB (93%)
Writing library                          : XviD 1.2.1 (UTC 2008-12-04)

Audio
ID                                       : 1
Format                                   : AC-3
Format/Info                              : Audio Coding 3
Mode extension                           : CM (complete main)
Codec ID                                 : 2000
Duration                                 : 1h 45mn
Bit rate mode                            : Constant
Bit rate                                 : 128 Kbps
Channel(s)                               : 6 channels
Channel positions                        : Front: L C R, Side: L R, LFE
Sampling rate                            : 48.0 KHz
Bit depth                                : 16 bits
Compression mode                         : Lossy
Stream size                              : 96.9 MiB (6%)
Alignment                                : Aligned on interleaves
Interleave, duration                     : 64 ms (1.53 video frames)
Interleave, preload duration             : 192 ms
Title                                    : Men.in.Black.3.2012.720p.BluRay.x264.DTS-HDC - [1] English


SOURCES: Men.in.Black.3.2012.720p.BluRay.x264.DTS-HDC Thank you 

VIDEO: Men.in.Black.3.2012.720p.BluRay.x264.DTS-HDC Thank you 
AUDIO: Men.in.Black.3.2012.720p.BluRay.x264.DTS-HDC Thank you 


Plot:
Agent J travels in time to MIB's early years in the 1960s, to stop an alien from assassinating his friend Agent K and changing history.


Screens:

 
http://lookpic.com/O/i2/799/MxvlZXO3.png
 
http://lookpic.com/O/i2/1156/vI7ZfbzQ.png
 
http://lookpic.com/O/i2/1551/9Yp5oVhc.png
 
http://lookpic.com/O/i2/970/RS4GYVu.png